<svg xmlns="http://www.w3.org/2000/svg" width="1200" height="1200" viewBox="0 0 1200 1200">
  <defs>
    <radialGradient id="gold" cx="34%" cy="30%" r="72%">
      <stop offset="0" stop-color="#f9dfaf"/>
      <stop offset="0.45" stop-color="#ce9550"/>
      <stop offset="1" stop-color="#7d4f27"/>
    </radialGradient>
    <radialGradient id="glow" cx="50%" cy="26%" r="46%">
      <stop offset="0" stop-color="#ffe9bf" stop-opacity="0.26"/>
      <stop offset="1" stop-color="#ffe9bf" stop-opacity="0"/>
    </radialGradient>
    <linearGradient id="rope" x1="0" y1="0" x2="1" y2="1">
      <stop offset="0" stop-color="#8b592d"/>
      <stop offset="1" stop-color="#6f4521"/>
    </linearGradient>
  </defs>

  <ellipse cx="600" cy="260" rx="360" ry="190" fill="url(#glow)"/>

  <path d="M248 308C248 640 430 888 600 970C770 888 952 640 952 308" stroke="url(#rope)" stroke-width="16" fill="none" stroke-linecap="round"/>

  <g>
    <circle cx="282" cy="332" r="34" fill="url(#gold)"/>
    <circle cx="316" cy="424" r="34" fill="url(#gold)"/>
    <circle cx="366" cy="512" r="34" fill="url(#gold)"/>
    <circle cx="432" cy="598" r="34" fill="url(#gold)"/>
    <circle cx="510" cy="674" r="34" fill="url(#gold)"/>
    <circle cx="600" cy="724" r="36" fill="url(#gold)"/>
    <circle cx="690" cy="674" r="34" fill="url(#gold)"/>
    <circle cx="768" cy="598" r="34" fill="url(#gold)"/>
    <circle cx="834" cy="512" r="34" fill="url(#gold)"/>
    <circle cx="884" cy="424" r="34" fill="url(#gold)"/>
    <circle cx="918" cy="332" r="34" fill="url(#gold)"/>

    <circle cx="350" cy="276" r="31" fill="url(#gold)"/>
    <circle cx="430" cy="232" r="31" fill="url(#gold)"/>
    <circle cx="515" cy="206" r="31" fill="url(#gold)"/>
    <circle cx="600" cy="196" r="31" fill="url(#gold)"/>
    <circle cx="685" cy="206" r="31" fill="url(#gold)"/>
    <circle cx="770" cy="232" r="31" fill="url(#gold)"/>
    <circle cx="850" cy="276" r="31" fill="url(#gold)"/>
  </g>

  <path d="M600 760V920" stroke="#9b6730" stroke-width="12" stroke-linecap="round"/>
  <ellipse cx="600" cy="962" rx="96" ry="66" fill="url(#gold)"/>
  <ellipse cx="600" cy="956" rx="38" ry="24" fill="#6e431e" opacity="0.54"/>
</svg>
