<svg xmlns="http://www.w3.org/2000/svg" width="1200" height="900" viewBox="0 0 1200 900">
  <defs>
    <radialGradient id="neckGlow" cx="50%" cy="24%" r="44%">
      <stop offset="0" stop-color="#ffe7ba" stop-opacity="0.25"/>
      <stop offset="1" stop-color="#ffe7ba" stop-opacity="0"/>
    </radialGradient>
    <radialGradient id="bead" cx="35%" cy="30%" r="72%">
      <stop offset="0" stop-color="#f5d79f"/>
      <stop offset="0.45" stop-color="#c9914f"/>
      <stop offset="1" stop-color="#7d5127"/>
    </radialGradient>
    <linearGradient id="pendant" x1="0" y1="0" x2="0" y2="1">
      <stop offset="0" stop-color="#f3cd8a"/>
      <stop offset="1" stop-color="#8c5b2a"/>
    </linearGradient>
  </defs>

  <ellipse cx="600" cy="260" rx="300" ry="180" fill="url(#neckGlow)"/>

  <path d="M270 260C315 180 420 128 600 128C780 128 885 180 930 260" stroke="#6c441f" stroke-opacity="0.65" stroke-width="12" fill="none"/>
  <path d="M265 270C265 430 390 580 600 630C810 580 935 430 935 270" stroke="#8a5a2b" stroke-width="18" fill="none"/>

  <g>
    <circle cx="290" cy="290" r="30" fill="url(#bead)"/>
    <circle cx="332" cy="360" r="30" fill="url(#bead)"/>
    <circle cx="388" cy="425" r="30" fill="url(#bead)"/>
    <circle cx="460" cy="482" r="30" fill="url(#bead)"/>
    <circle cx="528" cy="525" r="30" fill="url(#bead)"/>
    <circle cx="600" cy="542" r="32" fill="url(#bead)"/>
    <circle cx="672" cy="525" r="30" fill="url(#bead)"/>
    <circle cx="740" cy="482" r="30" fill="url(#bead)"/>
    <circle cx="812" cy="425" r="30" fill="url(#bead)"/>
    <circle cx="868" cy="360" r="30" fill="url(#bead)"/>
    <circle cx="910" cy="290" r="30" fill="url(#bead)"/>

    <circle cx="360" cy="245" r="28" fill="url(#bead)"/>
    <circle cx="430" cy="205" r="28" fill="url(#bead)"/>
    <circle cx="510" cy="180" r="28" fill="url(#bead)"/>
    <circle cx="600" cy="170" r="28" fill="url(#bead)"/>
    <circle cx="690" cy="180" r="28" fill="url(#bead)"/>
    <circle cx="770" cy="205" r="28" fill="url(#bead)"/>
    <circle cx="840" cy="245" r="28" fill="url(#bead)"/>
  </g>

  <path d="M600 566V700" stroke="#95622f" stroke-width="10"/>
  <ellipse cx="600" cy="732" rx="84" ry="58" fill="url(#pendant)"/>
  <ellipse cx="600" cy="728" rx="34" ry="22" fill="#6f431e" opacity="0.55"/>
</svg>
