<svg xmlns="http://www.w3.org/2000/svg" width="420" height="620" viewBox="0 0 420 620">
  <defs>
    <radialGradient id="a" cx="50%" cy="45%" r="55%">
      <stop offset="0" stop-color="#ffe6af" stop-opacity="0.95"/>
      <stop offset="0.55" stop-color="#efc474" stop-opacity="0.86"/>
      <stop offset="1" stop-color="#bf8337" stop-opacity="0.0"/>
    </radialGradient>
    <linearGradient id="g" x1="0" y1="0" x2="0" y2="1">
      <stop offset="0" stop-color="#ffe0a0"/>
      <stop offset="1" stop-color="#c28a42"/>
    </linearGradient>
  </defs>
  <ellipse cx="210" cy="310" rx="170" ry="240" fill="url(#a)"/>
  <circle cx="210" cy="172" r="60" fill="url(#g)"/>
  <path d="M102 396C118 298 150 250 210 250C270 250 302 298 318 396C280 430 248 448 210 448C172 448 140 430 102 396Z" fill="url(#g)"/>
  <path d="M140 410C152 352 174 322 210 322C246 322 268 352 280 410C252 436 234 446 210 446C186 446 168 436 140 410Z" fill="#9f6b2e" opacity="0.55"/>
</svg>
